<mxfile host="app.diagrams.net" agent="Mozilla/5.0 (Windows NT 10.0; Win64; x64) AppleWebKit/537.36 (KHTML, like Gecko) Chrome/130.0.0.0 Safari/537.36" version="25.0.3">
  <diagram name="Trang-1" id="jfOicE8PaIddwebQgmtz">
    <mxGraphModel grid="1" page="1" gridSize="10" guides="1" tooltips="1" connect="1" arrows="1" fold="1" pageScale="1" pageWidth="827" pageHeight="1169" math="0" shadow="0">
      <root>
        <mxCell id="0" />
        <mxCell id="1" parent="0" />
        <mxCell id="GvvFHOh28quDxuXBS3qn-3" value="" style="edgeStyle=orthogonalEdgeStyle;rounded=0;orthogonalLoop=1;jettySize=auto;html=1;" edge="1" parent="1" source="GvvFHOh28quDxuXBS3qn-1" target="GvvFHOh28quDxuXBS3qn-2">
          <mxGeometry relative="1" as="geometry" />
        </mxCell>
        <mxCell id="GvvFHOh28quDxuXBS3qn-1" value="start" style="ellipse;whiteSpace=wrap;html=1;" vertex="1" parent="1">
          <mxGeometry x="340" y="70" width="120" height="80" as="geometry" />
        </mxCell>
        <mxCell id="GvvFHOh28quDxuXBS3qn-5" value="" style="edgeStyle=orthogonalEdgeStyle;rounded=0;orthogonalLoop=1;jettySize=auto;html=1;" edge="1" parent="1" source="GvvFHOh28quDxuXBS3qn-2" target="GvvFHOh28quDxuXBS3qn-4">
          <mxGeometry relative="1" as="geometry" />
        </mxCell>
        <mxCell id="GvvFHOh28quDxuXBS3qn-2" value="nhap n" style="rounded=1;whiteSpace=wrap;html=1;" vertex="1" parent="1">
          <mxGeometry x="340" y="240" width="120" height="60" as="geometry" />
        </mxCell>
        <mxCell id="GvvFHOh28quDxuXBS3qn-10" value="" style="edgeStyle=orthogonalEdgeStyle;rounded=0;orthogonalLoop=1;jettySize=auto;html=1;" edge="1" parent="1" source="GvvFHOh28quDxuXBS3qn-4" target="GvvFHOh28quDxuXBS3qn-9">
          <mxGeometry relative="1" as="geometry" />
        </mxCell>
        <mxCell id="GvvFHOh28quDxuXBS3qn-16" value="" style="edgeStyle=orthogonalEdgeStyle;rounded=0;orthogonalLoop=1;jettySize=auto;html=1;" edge="1" parent="1" source="GvvFHOh28quDxuXBS3qn-4" target="GvvFHOh28quDxuXBS3qn-15">
          <mxGeometry relative="1" as="geometry" />
        </mxCell>
        <mxCell id="GvvFHOh28quDxuXBS3qn-4" value="nếu n&amp;lt;=1" style="rhombus;whiteSpace=wrap;html=1;rounded=1;" vertex="1" parent="1">
          <mxGeometry x="360" y="370" width="80" height="80" as="geometry" />
        </mxCell>
        <mxCell id="GvvFHOh28quDxuXBS3qn-6" value="end" style="ellipse;whiteSpace=wrap;html=1;" vertex="1" parent="1">
          <mxGeometry x="570" y="720" width="120" height="80" as="geometry" />
        </mxCell>
        <mxCell id="GvvFHOh28quDxuXBS3qn-13" value="" style="edgeStyle=orthogonalEdgeStyle;rounded=0;orthogonalLoop=1;jettySize=auto;html=1;" edge="1" parent="1" source="GvvFHOh28quDxuXBS3qn-9" target="GvvFHOh28quDxuXBS3qn-12">
          <mxGeometry relative="1" as="geometry" />
        </mxCell>
        <mxCell id="GvvFHOh28quDxuXBS3qn-20" value="" style="edgeStyle=orthogonalEdgeStyle;rounded=0;orthogonalLoop=1;jettySize=auto;html=1;" edge="1" parent="1" source="GvvFHOh28quDxuXBS3qn-9" target="GvvFHOh28quDxuXBS3qn-19">
          <mxGeometry relative="1" as="geometry" />
        </mxCell>
        <mxCell id="GvvFHOh28quDxuXBS3qn-9" value="n=2" style="rhombus;whiteSpace=wrap;html=1;rounded=1;" vertex="1" parent="1">
          <mxGeometry x="200" y="370" width="80" height="80" as="geometry" />
        </mxCell>
        <mxCell id="GvvFHOh28quDxuXBS3qn-11" value="sai" style="text;html=1;align=center;verticalAlign=middle;resizable=0;points=[];autosize=1;strokeColor=none;fillColor=none;" vertex="1" parent="1">
          <mxGeometry x="300" y="378" width="40" height="30" as="geometry" />
        </mxCell>
        <mxCell id="GvvFHOh28quDxuXBS3qn-18" style="edgeStyle=orthogonalEdgeStyle;rounded=0;orthogonalLoop=1;jettySize=auto;html=1;" edge="1" parent="1">
          <mxGeometry relative="1" as="geometry">
            <mxPoint x="610" y="720" as="targetPoint" />
            <mxPoint x="60" y="440" as="sourcePoint" />
            <Array as="points">
              <mxPoint x="60" y="530" />
              <mxPoint x="61" y="530" />
              <mxPoint x="61" y="690" />
              <mxPoint x="610" y="690" />
            </Array>
          </mxGeometry>
        </mxCell>
        <mxCell id="GvvFHOh28quDxuXBS3qn-12" value="la so nguyen to" style="whiteSpace=wrap;html=1;rounded=1;" vertex="1" parent="1">
          <mxGeometry x="20" y="380" width="120" height="60" as="geometry" />
        </mxCell>
        <mxCell id="GvvFHOh28quDxuXBS3qn-14" value="đúng" style="text;html=1;align=center;verticalAlign=middle;resizable=0;points=[];autosize=1;strokeColor=none;fillColor=none;" vertex="1" parent="1">
          <mxGeometry x="135" y="388" width="50" height="30" as="geometry" />
        </mxCell>
        <mxCell id="GvvFHOh28quDxuXBS3qn-15" value="khong phai so nguyen to" style="rounded=1;whiteSpace=wrap;html=1;" vertex="1" parent="1">
          <mxGeometry x="550" y="380" width="120" height="60" as="geometry" />
        </mxCell>
        <mxCell id="GvvFHOh28quDxuXBS3qn-17" style="edgeStyle=orthogonalEdgeStyle;rounded=0;orthogonalLoop=1;jettySize=auto;html=1;entryX=0.333;entryY=0.075;entryDx=0;entryDy=0;entryPerimeter=0;" edge="1" parent="1" source="GvvFHOh28quDxuXBS3qn-15" target="GvvFHOh28quDxuXBS3qn-6">
          <mxGeometry relative="1" as="geometry" />
        </mxCell>
        <mxCell id="GvvFHOh28quDxuXBS3qn-23" value="" style="edgeStyle=orthogonalEdgeStyle;rounded=0;orthogonalLoop=1;jettySize=auto;html=1;" edge="1" parent="1" source="GvvFHOh28quDxuXBS3qn-19" target="GvvFHOh28quDxuXBS3qn-22">
          <mxGeometry relative="1" as="geometry" />
        </mxCell>
        <mxCell id="GvvFHOh28quDxuXBS3qn-19" value="i&amp;lt;=sqrt(n)" style="rhombus;whiteSpace=wrap;html=1;rounded=1;" vertex="1" parent="1">
          <mxGeometry x="200" y="570" width="80" height="80" as="geometry" />
        </mxCell>
        <mxCell id="GvvFHOh28quDxuXBS3qn-21" style="edgeStyle=orthogonalEdgeStyle;rounded=0;orthogonalLoop=1;jettySize=auto;html=1;entryX=0.833;entryY=1;entryDx=0;entryDy=0;entryPerimeter=0;" edge="1" parent="1" source="GvvFHOh28quDxuXBS3qn-19" target="GvvFHOh28quDxuXBS3qn-12">
          <mxGeometry relative="1" as="geometry" />
        </mxCell>
        <mxCell id="GvvFHOh28quDxuXBS3qn-27" style="edgeStyle=orthogonalEdgeStyle;rounded=0;orthogonalLoop=1;jettySize=auto;html=1;" edge="1" parent="1" source="GvvFHOh28quDxuXBS3qn-22">
          <mxGeometry relative="1" as="geometry">
            <mxPoint x="490" y="410" as="targetPoint" />
          </mxGeometry>
        </mxCell>
        <mxCell id="GvvFHOh28quDxuXBS3qn-32" value="" style="edgeStyle=orthogonalEdgeStyle;rounded=0;orthogonalLoop=1;jettySize=auto;html=1;" edge="1" parent="1" source="GvvFHOh28quDxuXBS3qn-22" target="GvvFHOh28quDxuXBS3qn-31">
          <mxGeometry relative="1" as="geometry" />
        </mxCell>
        <mxCell id="GvvFHOh28quDxuXBS3qn-22" value="n mod i=o" style="rhombus;whiteSpace=wrap;html=1;rounded=1;" vertex="1" parent="1">
          <mxGeometry x="370" y="570" width="80" height="80" as="geometry" />
        </mxCell>
        <mxCell id="GvvFHOh28quDxuXBS3qn-24" value="đúng" style="text;html=1;align=center;verticalAlign=middle;resizable=0;points=[];autosize=1;strokeColor=none;fillColor=none;" vertex="1" parent="1">
          <mxGeometry x="115" y="488" width="50" height="30" as="geometry" />
        </mxCell>
        <mxCell id="GvvFHOh28quDxuXBS3qn-30" value="đúng" style="text;html=1;align=center;verticalAlign=middle;resizable=0;points=[];autosize=1;strokeColor=none;fillColor=none;" vertex="1" parent="1">
          <mxGeometry x="435" y="578" width="50" height="30" as="geometry" />
        </mxCell>
        <mxCell id="GvvFHOh28quDxuXBS3qn-33" style="edgeStyle=orthogonalEdgeStyle;rounded=0;orthogonalLoop=1;jettySize=auto;html=1;" edge="1" parent="1" source="GvvFHOh28quDxuXBS3qn-31" target="GvvFHOh28quDxuXBS3qn-19">
          <mxGeometry relative="1" as="geometry" />
        </mxCell>
        <mxCell id="GvvFHOh28quDxuXBS3qn-31" value="i=++" style="whiteSpace=wrap;html=1;rounded=1;" vertex="1" parent="1">
          <mxGeometry x="365" y="483" width="90" height="40" as="geometry" />
        </mxCell>
        <mxCell id="GvvFHOh28quDxuXBS3qn-35" value="sai" style="text;html=1;align=center;verticalAlign=middle;resizable=0;points=[];autosize=1;strokeColor=none;fillColor=none;" vertex="1" parent="1">
          <mxGeometry x="400" y="528" width="40" height="30" as="geometry" />
        </mxCell>
      </root>
    </mxGraphModel>
  </diagram>
</mxfile>
